<svg xmlns="http://www.w3.org/2000/svg" viewBox="0 0 437.34 441.64"><defs><style>.cls-1{fill:#5bc0de;}.cls-2{fill:#eaac9d;}.cls-3{fill:#ffcbbe;}.cls-4{fill:#ffddce;}.cls-5{fill:#9dc6fb;}.cls-6{fill:#80b4fb;}.cls-7{fill:#f9f6f6;}.cls-8{fill:#f1e64d;}.cls-9{fill:#ffc250;}.cls-10{fill:#f7f493;}</style></defs><title>Ativo 1</title><g id="Camada_2" data-name="Camada 2"><g id="Capa_1" data-name="Capa 1"><circle class="cls-1" cx="216.87" cy="229.97" r="211.66"/><path class="cls-2" d="M197.4,284.68,310.46,219.1a30.61,30.61,0,0,1,38.59,46.69L223.41,319.72Z"/><path class="cls-3" d="M244.23,287.45l113.06-65.57a30.61,30.61,0,0,1,38.59,46.69L270.24,322.5Z"/><path class="cls-4" d="M437.34,260a30.55,30.55,0,0,1-7.89,20.51l-20.9,23.15-42.89,47.5a44.52,44.52,0,0,1-27.42,14.33L144.59,390.13,66.77,332.46c-.37-.62-4.23-85-4.23-85l45.54-35a222.56,222.56,0,0,1,70.63-36.37c1.08-.33,2.16-.66,3.24-1a221,221,0,0,1,23.56-5.43l7.89-1.38a30.58,30.58,0,0,1,23,55l-50.25,36L320.92,276.2l69.93-42.4A30.62,30.62,0,0,1,437.34,260Z"/><path class="cls-3" d="M408.55,303.63l-42.89,47.5a44.52,44.52,0,0,1-27.42,14.33L144.59,390.13l-42.3-31.36-7.17-54.66c58.53,99,290,25.49,313.43-.48Z"/><path class="cls-5" d="M144.59,390.12l-62.53,40L43,362.26,0,287.45l62.54-40,47,81.67Z"/><path class="cls-6" d="M144.59,390.12l-62.53,40L43,362.26c44.76,3.51,66.49-33.12,66.49-33.12Z"/><circle class="cls-7" cx="95.79" cy="381.53" r="13.46"/><path class="cls-8" d="M325.47,78.69,311.25,92.55A18.57,18.57,0,0,0,305.91,109l3.36,19.56a18.57,18.57,0,0,1-26.94,19.57l-17.57-9.23a18.51,18.51,0,0,0-17.27,0l-17.57,9.23A18.56,18.56,0,0,1,203,128.54L206.33,109A18.52,18.52,0,0,0,201,92.55L186.78,78.69A18.56,18.56,0,0,1,197.07,47l19.64-2.86a18.55,18.55,0,0,0,14-10.15l8.79-17.81a18.57,18.57,0,0,1,33.29,0L281.56,34a18.57,18.57,0,0,0,14,10.15L315.18,47A18.56,18.56,0,0,1,325.47,78.69Z"/><path class="cls-9" d="M211.08,81.1c5.82,14.77,14.44,24.66,8.38,38.61s-3,32.28,28,19.17l-17.57,9.23A18.56,18.56,0,0,1,203,128.54L206.33,109A18.53,18.53,0,0,0,201,92.55L186.78,78.69A18.56,18.56,0,0,1,197.07,47l19.64-2.86a18.55,18.55,0,0,0,14-10.15l8.79-17.81A18.34,18.34,0,0,1,256.12,5.87c-13.06,0-7.63,37.67-26.33,47.56S205.27,66.32,211.08,81.1Z"/><path class="cls-10" d="M154.44,28.57l-.88,1.54A11.9,11.9,0,0,1,138,34.84l-17.27-8.45a11.89,11.89,0,0,1-5.07-16.63L117.89,6A11.88,11.88,0,0,1,134.82,2l16,10.73a11.88,11.88,0,0,1,3.66,15.81Z"/><path class="cls-10" d="M357.81,143.91l.88-1.53a11.89,11.89,0,0,1,15.53-4.74l17.27,8.45a11.89,11.89,0,0,1,5.07,16.63l-2.2,3.81a11.89,11.89,0,0,1-16.94,3.92l-15.95-10.73A11.88,11.88,0,0,1,357.81,143.91Z"/><path class="cls-10" d="M138.75,85.35v1.78A11.89,11.89,0,0,1,127.67,99l-19.18,1.32a11.89,11.89,0,0,1-12.7-11.87V84a11.88,11.88,0,0,1,12.7-11.86l19.18,1.31A11.89,11.89,0,0,1,138.75,85.35Z"/><path class="cls-10" d="M373.5,87.13V85.35a11.89,11.89,0,0,1,11.07-11.86l19.19-1.32A11.89,11.89,0,0,1,416.46,84v4.4a11.89,11.89,0,0,1-12.7,11.87L384.57,99A11.89,11.89,0,0,1,373.5,87.13Z"/><path class="cls-10" d="M153.56,142.38l.88,1.53a11.88,11.88,0,0,1-3.66,15.81l-16,10.73a11.88,11.88,0,0,1-16.93-3.92l-2.2-3.81a11.89,11.89,0,0,1,5.07-16.63L138,137.64a11.89,11.89,0,0,1,15.53,4.74Z"/><path class="cls-10" d="M358.69,30.11l-.88-1.54a11.88,11.88,0,0,1,3.66-15.81L377.42,2A11.89,11.89,0,0,1,394.36,6l2.2,3.81a11.9,11.9,0,0,1-5.07,16.63l-17.27,8.45A11.9,11.9,0,0,1,358.69,30.11Z"/></g></g></svg>